<svg width="71" height="20" viewBox="0 0 71 20" fill="none" xmlns="http://www.w3.org/2000/svg">
<path
    d="M30.8059 12.7392V7.99364C30.8059 5.3022 28.9136 3.9563 25.7684 3.9563C23.6422 3.9563 22.0655 4.77808 21.1367 5.97894C21.5644 6.52958 21.9046 7.15481 22.1389 7.83004L23.4976 8.05991C23.7827 7.02265 24.4205 6.51556 25.6507 6.51556C27.0214 6.51556 27.5653 7.13474 27.5653 8.12618V8.30228L24.4671 8.85518C23.7502 8.97523 23.074 9.1411 22.475 9.3706C22.4954 9.57964 22.5055 9.79096 22.5055 10.0061C22.5055 11.7784 21.811 13.3829 20.6844 14.5588C21.424 15.4533 22.6907 15.9831 24.2085 15.9831C25.84 15.9831 27.0925 15.5192 27.8973 14.7035C28.4412 15.6745 29.7184 16.0721 31.8446 15.7843V13.4674C31.089 13.5545 30.8059 13.3579 30.8059 12.7392ZM27.5649 11.6583C27.5649 12.9607 26.2654 13.6439 24.8702 13.6439C23.8762 13.6439 23.2383 13.18 23.2383 12.3851C23.2383 11.4595 24.0408 11.1282 25.1287 10.9297L27.5649 10.4658V11.6583Z"
    fill="#F4F4FF"
  />
<path
    d="M12.1542 4.86102V4.21912H8.84431V5.41165C8.20462 4.61675 6.92747 3.99947 5.39175 3.99947C1.98614 3.99985 0 6.58146 0 9.7368C0 12.8921 1.98614 15.4969 5.39175 15.4969C6.95205 15.4969 8.20462 14.88 8.84431 14.0847V14.8796C8.84431 16.7988 7.63832 17.5937 5.91111 17.5937C4.4935 17.5937 3.52372 16.8878 3.19176 15.7407L0.0711598 16.5796C0.78015 18.8529 2.86167 20 5.86417 20C9.34317 20 11.8546 18.2712 12.1277 15.1303C10.6349 13.9377 9.67736 12.0848 9.67736 10.0061C9.67736 7.92737 10.6472 6.05166 12.1542 4.86102ZM8.86704 9.91403C8.86704 11.8106 7.75605 12.8713 6.17153 12.8713C4.37428 12.8713 3.35755 11.6795 3.35755 9.73756C3.35755 7.79558 4.37428 6.6038 6.17153 6.6038C7.75568 6.6038 8.86704 7.685 8.86704 9.60501V9.91403Z"
    fill="#F4F4FF"
  />
<path d="M35.8307 0H32.7697V15.8903H35.8307V0Z" fill="#F4F4FF" />
<path
    d="M16.0914 13.6132C18.0513 13.6132 19.6401 11.9982 19.6401 10.0061C19.6401 8.01389 18.0513 6.39892 16.0914 6.39892C14.1316 6.39892 12.5428 8.01389 12.5428 10.0061C12.5428 11.9982 14.1316 13.6132 16.0914 13.6132Z"
    fill="#6DFFE7"
  />
<path
    d="M40.2217 14.7406V15.8903H36.7412V0.014012H40.2217V5.38703C40.8744 4.56904 41.9619 3.99417 43.3326 3.99417C46.4867 3.99417 48.2706 6.73597 48.2706 10.075C48.2706 13.414 46.4867 16.1338 43.3326 16.1338C41.9623 16.1338 40.8744 15.5586 40.2217 14.7406ZM40.1997 10.3844C40.1997 12.1313 41.1352 13.1262 42.4403 13.1262C43.963 13.1262 44.7681 11.8659 44.7681 10.0746C44.7681 8.28335 43.9634 7.02303 42.4403 7.02303C41.1352 7.02303 40.1997 7.99591 40.1997 9.76483V10.3844Z"
    fill="#F4F4FF"
  />
<path
    d="M59.4509 15.8903H55.9704V14.7406C55.3396 15.4703 54.3169 16.1335 52.8814 16.1335C50.5321 16.1335 48.9878 14.4971 48.9878 11.9541V4.23729H52.4683V11.1141C52.4683 12.2862 52.9686 13.0379 54.0997 13.0379C55.0568 13.0379 55.9707 12.3525 55.9707 10.9816V4.23729H59.4512L59.4509 15.8903Z"
    fill="#F4F4FF"
  />
<path
    d="M62.2552 11.7996C63.1907 12.8387 64.6698 13.4579 65.9097 13.4579C66.8232 13.4579 67.5847 13.1485 67.5847 12.5293C67.5847 11.7553 66.8232 11.667 64.9961 11.3353C63.1035 10.9593 61.0805 10.4507 61.0805 7.93002C61.0805 5.56389 63.1471 3.99417 65.9752 3.99417C68.0418 3.99417 69.8689 4.7902 70.826 5.8517L69.0858 8.12921C68.2155 7.20064 67.0844 6.69204 65.9532 6.69204C65.1049 6.69204 64.561 7.02378 64.561 7.55434C64.561 8.19549 65.2353 8.2841 66.6276 8.54919C68.6942 8.96955 71 9.47777 71 12.1094C71 14.741 68.6942 16.1338 65.7793 16.1338C63.7778 16.1338 61.5156 15.4484 60.4497 14.1881L62.2552 11.7996Z"
    fill="#F4F4FF"
  />
</svg>
